<svg width="123" height="20" viewBox="0 0 123 20" fill="none" xmlns="http://www.w3.org/2000/svg">
<g id="Anxend Logo">
<path id="Vector" d="M63.9622 5.48102C63.0534 5.29034 62.1687 5.31808 61.2875 5.52955C58.9376 6.09118 57.0577 8.18166 56.8019 10.5876C56.4011 14.3318 59.0482 16.9076 61.9164 17.2786C63.4024 17.4692 64.7536 17.0567 65.9458 16.1622C67.2417 15.1881 68.0538 13.895 68.351 12.2968C68.3994 12.0298 68.3717 11.7455 68.3752 11.4717C68.3856 8.97556 69.2529 6.82961 71.0741 5.12394C75.5562 0.911769 82.7441 2.71797 84.7934 8.55608C85.2426 9.83879 85.3705 11.1562 85.1977 12.5082C85.1735 12.6989 85.0906 12.7266 84.9351 12.7266C84.0988 12.7232 83.266 12.7266 82.4297 12.7266C78.7355 12.7266 75.0413 12.7266 71.3471 12.7266C71.2746 12.7266 71.202 12.7266 71.0879 12.7266C71.1812 13.0179 71.2504 13.2917 71.3506 13.5517C72.256 15.9196 74.5506 17.4588 77.0767 17.341C78.891 17.2578 80.3562 16.4535 81.4724 15.0217C81.5692 14.9003 81.6625 14.8553 81.8145 14.8553C82.7061 14.8622 83.5977 14.8587 84.5446 14.8587C83.4249 17.2162 81.704 18.8768 79.2193 19.5562C75.2245 20.6483 72.0763 19.2754 69.6711 16.0028C67.9432 18.4191 65.6452 19.9133 62.5972 19.9029C59.5596 19.8925 57.227 18.4573 55.5026 15.9716C54.9738 16.814 54.3311 17.549 53.5501 18.1557C51.646 19.636 49.5 20.2184 47.1017 19.9411C45.7747 19.7885 44.5375 19.4072 43.411 18.6791C41.5621 17.4831 40.5565 15.7289 40.1245 13.6211C39.9863 12.9416 39.9725 12.2378 39.8965 11.5445C39.7824 10.5426 39.5993 9.55452 39.15 8.64968C38.2757 6.89201 36.8727 5.84157 34.9029 5.61969C33.9008 5.50875 32.8986 5.52262 31.9414 5.90397C30.2411 6.58346 29.1319 7.80725 28.6169 9.56838C28.3301 10.5495 28.2126 11.5549 28.1331 12.5706C27.9776 14.5779 27.2865 16.3668 25.8178 17.7847C22.8009 20.6934 17.8869 20.156 15.5404 16.6788C15.4782 16.5887 15.4195 16.4985 15.3504 16.3911C13.3461 18.96 10.7439 20.1941 7.49204 19.8613C5.29073 19.636 3.46265 18.6237 2.02161 16.9423C-0.863932 13.576 -0.632398 8.53874 2.54342 5.40822C5.73998 2.26036 11.0445 2.09048 14.4968 5.53302V3.09932H17.0299V3.35933C17.0299 6.6528 17.0368 9.94626 17.023 13.2397C17.023 13.7979 17.1474 14.3075 17.4065 14.7825C18.1806 16.2142 19.3867 17.0185 21.0109 17.0706C22.6523 17.1226 23.8999 16.3772 24.7845 14.9905C25.2372 14.2798 25.5413 13.524 25.645 12.6885C25.7314 11.9951 25.7798 11.3018 25.8766 10.6084C26.0943 9.01716 26.502 7.4883 27.4869 6.17785C29.0385 4.11856 31.1051 3.06119 33.6796 2.99185C34.7682 2.96412 35.8429 3.02999 36.8762 3.40787C39.5544 4.38551 41.2235 6.28185 41.9388 9.03103C42.2395 10.1889 42.3535 11.3746 42.4675 12.5602C42.5401 13.3264 42.7198 14.0718 43.1829 14.7027C44.6965 16.7793 46.7285 17.7708 49.2753 17.3132C51.8118 16.8556 53.4775 15.2817 54.0477 12.7613C54.8736 9.10383 52.4062 6.05304 49.2028 5.51569C48.4701 5.39435 47.7444 5.41862 47.0084 5.56076V2.98145C49.0784 2.5377 53.0801 3.17213 55.4507 6.79841C57.5138 3.81349 60.3371 2.4857 63.9657 2.83931V5.47755L63.9622 5.48102ZM8.44236 17.3444C11.6769 17.3479 14.3171 14.7166 14.3309 11.4786C14.3413 8.22673 11.7115 5.57116 8.47001 5.56422C5.22507 5.55729 2.57798 8.19206 2.57107 11.4405C2.56416 14.6889 5.20088 17.3375 8.44236 17.3444ZM71.0983 10.0953H82.5437C82.1428 7.84191 80.0072 5.41515 76.8521 5.39782C73.6521 5.38048 71.4923 7.84191 71.0983 10.0953Z" fill="white"/>
<path id="Vector_2" d="M120.45 5.33541V0H122.979C122.979 0.0866701 122.979 0.17334 122.979 0.256544C122.979 3.64361 122.979 7.03068 122.979 10.4177C122.979 11.021 123.024 11.6242 122.979 12.224C122.831 14.1099 122.112 15.767 120.857 17.178C119.444 18.7658 117.675 19.7157 115.56 19.9445C112.864 20.2357 110.525 19.4072 108.621 17.4727C106.938 15.767 106.146 13.6765 106.174 11.2845C106.226 7.20402 109.308 3.64015 113.327 3.05426C115.961 2.66944 118.276 3.39747 120.263 5.17594C120.315 5.22101 120.367 5.26954 120.45 5.33888V5.33541ZM114.578 17.4311C117.806 17.4415 120.443 14.779 120.453 11.4994C120.467 8.21979 117.844 5.53649 114.62 5.52609C111.392 5.51569 108.755 8.17819 108.745 11.4578C108.731 14.7339 111.354 17.4207 114.578 17.4311Z" fill="white"/>
<path id="Vector_3" d="M89.9943 19.9445H87.4405C87.4336 19.8613 87.4267 19.785 87.4267 19.7088C87.4267 16.8244 87.4163 13.9365 87.4267 11.0522C87.4405 7.0688 90.3502 3.66787 94.2898 3.08198C97.1788 2.65209 99.7394 3.37319 101.792 5.52954C103.309 7.12081 104.018 9.05182 104.014 11.2498C104.014 14.0683 104.014 16.8903 104.014 19.7088C104.014 19.7816 104.007 19.8509 104.004 19.9376H101.447V19.6533C101.447 16.8625 101.443 14.0718 101.447 11.281C101.45 9.76945 100.987 8.43472 99.9537 7.32535C98.8859 6.1813 97.5589 5.60234 95.9969 5.54341C94.2414 5.47754 92.7209 6.00796 91.5044 7.29415C90.4815 8.37926 89.9908 9.67931 89.9908 11.1735C89.9908 13.992 89.9908 16.814 89.9908 19.6325C89.9908 19.7261 89.9908 19.8197 89.9908 19.9376L89.9943 19.9445Z" fill="white"/>
</g>
</svg>
